<svg xmlns="http://www.w3.org/2000/svg" xmlns:xlink="http://www.w3.org/1999/xlink" width="75" zoomAndPan="magnify" viewBox="0 0 56.25 59.25" height="79" preserveAspectRatio="xMidYMid meet" version="1.0"><defs><clipPath id="5ba7fddd26"><path d="M 0 3.234375 L 55.488281 3.234375 L 55.488281 55.003906 L 0 55.003906 Z M 0 3.234375 " clip-rule="nonzero"/></clipPath></defs><path fill="#709cd8" d="M 12.875 51.007812 C 14.808594 50.167969 16.015625 48.636719 16.015625 47.011719 C 16.015625 45.398438 14.8125 43.863281 12.875 43.011719 C 11.175781 42.277344 9.097656 42.167969 7.300781 42.714844 C 4.898438 43.445312 3.347656 45.132812 3.347656 47.011719 C 3.347656 48.867188 4.933594 50.589844 7.296875 51.300781 C 7.542969 51.378906 7.808594 51.445312 8.101562 51.503906 C 8.617188 51.605469 9.148438 51.652344 9.683594 51.652344 C 10.214844 51.652344 10.746094 51.605469 11.261719 51.503906 C 11.820312 51.398438 12.363281 51.230469 12.875 51.007812 Z M 12.484375 53.496094 C 12.234375 53.570312 11.976562 53.632812 11.679688 53.6875 C 10.398438 53.941406 8.953125 53.9375 7.679688 53.6875 C 7.671875 53.6875 7.628906 53.675781 7.621094 53.675781 C 7.605469 53.671875 7.59375 53.667969 7.578125 53.664062 C 3.769531 52.902344 1.113281 50.164062 1.113281 47.015625 C 1.113281 43.863281 3.769531 41.121094 7.582031 40.351562 C 8.257812 40.210938 8.964844 40.140625 9.683594 40.140625 C 10.648438 40.140625 11.59375 40.269531 12.496094 40.53125 C 15.9375 41.484375 18.25 44.089844 18.25 47.015625 C 18.25 47.378906 18.210938 47.738281 18.144531 48.09375 C 17.652344 50.558594 15.503906 52.65625 12.484375 53.496094 Z M 18.25 18.226562 L 18.25 11.011719 C 18.25 10.4375 18.152344 9.863281 17.960938 9.308594 C 17.234375 7.167969 15.191406 5.460938 12.5 4.734375 C 10.917969 4.304688 9.183594 4.246094 7.578125 4.570312 C 3.769531 5.316406 1.113281 7.96875 1.113281 11.011719 L 1.113281 43.25 C 1.125 43.230469 1.136719 43.214844 1.148438 43.199219 C 1.167969 43.164062 1.195312 43.132812 1.214844 43.097656 C 1.316406 42.949219 1.421875 42.804688 1.53125 42.664062 C 1.554688 42.636719 1.574219 42.605469 1.597656 42.578125 C 1.726562 42.421875 1.859375 42.269531 2 42.121094 C 2.03125 42.085938 2.066406 42.050781 2.097656 42.015625 C 2.238281 41.871094 2.378906 41.734375 2.527344 41.601562 C 2.539062 41.589844 2.546875 41.582031 2.558594 41.570312 C 2.714844 41.433594 2.882812 41.296875 3.050781 41.167969 C 3.089844 41.136719 3.132812 41.101562 3.171875 41.074219 C 3.34375 40.945312 3.519531 40.824219 3.699219 40.707031 C 3.726562 40.691406 3.753906 40.675781 3.777344 40.660156 C 3.945312 40.554688 4.117188 40.453125 4.292969 40.355469 C 4.335938 40.332031 4.375 40.308594 4.421875 40.285156 C 4.613281 40.183594 4.8125 40.085938 5.015625 39.996094 C 5.058594 39.976562 5.105469 39.957031 5.148438 39.9375 C 5.332031 39.859375 5.523438 39.78125 5.71875 39.710938 C 5.75 39.699219 5.785156 39.683594 5.820312 39.671875 C 6.039062 39.59375 6.261719 39.523438 6.488281 39.460938 C 6.539062 39.445312 6.589844 39.433594 6.644531 39.417969 C 6.875 39.355469 7.113281 39.296875 7.355469 39.246094 C 9.109375 38.882812 11.058594 38.945312 12.804688 39.445312 C 15.203125 40.109375 17.117188 41.5 18.25 43.261719 L 18.25 18.230469 C 18.25 18.226562 18.25 18.226562 18.25 18.226562 Z M 19.382812 46.789062 C 19.382812 46.816406 19.378906 46.835938 19.375 46.863281 C 19.375 46.914062 19.382812 46.964844 19.382812 47.015625 C 19.382812 47.210938 19.371094 47.402344 19.351562 47.597656 C 19.347656 47.65625 19.339844 47.71875 19.332031 47.777344 C 19.316406 47.910156 19.296875 48.046875 19.273438 48.179688 C 19.261719 48.246094 19.25 48.308594 19.238281 48.375 C 19.207031 48.507812 19.175781 48.640625 19.140625 48.773438 C 19.125 48.828125 19.113281 48.886719 19.097656 48.9375 C 19.039062 49.125 18.976562 49.304688 18.910156 49.484375 C 18.902344 49.5 18.894531 49.515625 18.886719 49.53125 C 18.824219 49.695312 18.75 49.855469 18.671875 50.015625 C 18.644531 50.070312 18.617188 50.125 18.585938 50.179688 C 18.523438 50.296875 18.460938 50.417969 18.390625 50.535156 C 18.355469 50.59375 18.320312 50.648438 18.285156 50.707031 C 18.210938 50.828125 18.128906 50.945312 18.042969 51.058594 C 18.011719 51.105469 17.980469 51.152344 17.949219 51.199219 C 17.828125 51.355469 17.707031 51.511719 17.574219 51.664062 C 17.554688 51.6875 17.53125 51.710938 17.511719 51.734375 C 17.398438 51.859375 17.28125 51.984375 17.160156 52.105469 C 17.113281 52.152344 17.0625 52.199219 17.015625 52.246094 C 16.914062 52.34375 16.808594 52.4375 16.703125 52.53125 C 16.648438 52.578125 16.59375 52.625 16.539062 52.671875 C 16.421875 52.765625 16.296875 52.859375 16.175781 52.953125 C 16.128906 52.988281 16.085938 53.019531 16.035156 53.054688 C 15.867188 53.175781 15.691406 53.296875 15.507812 53.40625 C 15.46875 53.429688 15.429688 53.449219 15.390625 53.476562 C 15.277344 53.542969 15.164062 53.613281 15.042969 53.675781 L 48.222656 53.675781 L 48.222656 18.792969 L 19.382812 18.792969 Z M 49.355469 18.792969 L 54.355469 18.792969 L 54.355469 53.675781 L 49.355469 53.675781 L 49.355469 18.792969 " fill-opacity="1" fill-rule="nonzero"/><path fill="#def4f4" d="M 12.421875 49.972656 C 11.984375 50.164062 11.523438 50.304688 11.050781 50.398438 C 10.148438 50.570312 9.195312 50.570312 8.320312 50.398438 C 8.066406 50.347656 7.84375 50.292969 7.628906 50.226562 C 5.746094 49.65625 4.480469 48.363281 4.480469 47.011719 C 4.480469 45.660156 5.746094 44.367188 7.632812 43.796875 C 8.289062 43.59375 8.976562 43.496094 9.683594 43.496094 C 10.640625 43.496094 11.585938 43.683594 12.417969 44.046875 C 13.9375 44.714844 14.882812 45.847656 14.882812 47.011719 C 14.882812 47.230469 14.847656 47.449219 14.785156 47.664062 C 14.507812 48.589844 13.652344 49.441406 12.421875 49.972656 " fill-opacity="1" fill-rule="nonzero"/><g clip-path="url(#5ba7fddd26)"><path fill="#211d1d" d="M 54.355469 53.675781 L 49.355469 53.675781 L 49.355469 18.792969 L 54.355469 18.792969 Z M 48.222656 53.675781 L 15.042969 53.675781 C 15.164062 53.613281 15.277344 53.542969 15.390625 53.476562 C 15.429688 53.449219 15.46875 53.429688 15.507812 53.40625 C 15.691406 53.296875 15.867188 53.175781 16.035156 53.054688 C 16.085938 53.019531 16.128906 52.988281 16.175781 52.953125 C 16.296875 52.859375 16.421875 52.765625 16.539062 52.671875 C 16.59375 52.625 16.648438 52.578125 16.703125 52.53125 C 16.808594 52.4375 16.914062 52.34375 17.015625 52.246094 C 17.0625 52.199219 17.113281 52.152344 17.160156 52.105469 C 17.28125 51.984375 17.398438 51.859375 17.511719 51.734375 C 17.53125 51.710938 17.554688 51.6875 17.574219 51.664062 C 17.707031 51.511719 17.828125 51.355469 17.949219 51.199219 C 17.980469 51.152344 18.011719 51.105469 18.042969 51.058594 C 18.128906 50.945312 18.210938 50.828125 18.285156 50.707031 C 18.320312 50.648438 18.355469 50.59375 18.390625 50.535156 C 18.460938 50.417969 18.523438 50.296875 18.585938 50.179688 C 18.617188 50.125 18.644531 50.070312 18.671875 50.015625 C 18.75 49.855469 18.824219 49.695312 18.886719 49.53125 C 18.894531 49.515625 18.902344 49.5 18.910156 49.484375 C 18.976562 49.304688 19.039062 49.125 19.097656 48.9375 C 19.113281 48.886719 19.125 48.828125 19.140625 48.773438 C 19.175781 48.640625 19.207031 48.507812 19.238281 48.375 C 19.25 48.308594 19.261719 48.246094 19.273438 48.179688 C 19.296875 48.046875 19.316406 47.910156 19.332031 47.777344 C 19.339844 47.71875 19.347656 47.65625 19.351562 47.597656 C 19.371094 47.402344 19.382812 47.210938 19.382812 47.015625 C 19.382812 46.964844 19.375 46.914062 19.375 46.863281 C 19.378906 46.835938 19.382812 46.816406 19.382812 46.789062 L 19.382812 18.792969 L 48.222656 18.792969 Z M 12.484375 53.496094 C 12.234375 53.570312 11.976562 53.632812 11.679688 53.6875 C 10.398438 53.941406 8.953125 53.9375 7.679688 53.6875 C 7.671875 53.6875 7.628906 53.675781 7.621094 53.675781 C 7.605469 53.671875 7.59375 53.667969 7.578125 53.664062 C 3.769531 52.902344 1.113281 50.164062 1.113281 47.015625 C 1.113281 43.863281 3.769531 41.121094 7.582031 40.351562 C 8.257812 40.210938 8.964844 40.140625 9.683594 40.140625 C 10.648438 40.140625 11.59375 40.269531 12.496094 40.53125 C 15.9375 41.484375 18.25 44.089844 18.25 47.015625 C 18.25 47.378906 18.210938 47.738281 18.144531 48.09375 C 17.652344 50.558594 15.503906 52.65625 12.484375 53.496094 Z M 1.113281 11.011719 C 1.113281 7.96875 3.769531 5.316406 7.578125 4.570312 C 9.183594 4.246094 10.917969 4.304688 12.5 4.734375 C 15.191406 5.460938 17.234375 7.167969 17.960938 9.308594 C 18.152344 9.863281 18.25 10.4375 18.25 11.011719 L 18.25 18.226562 C 18.25 18.226562 18.25 18.226562 18.25 18.230469 L 18.25 43.261719 C 17.117188 41.5 15.203125 40.109375 12.804688 39.445312 C 11.058594 38.945312 9.109375 38.882812 7.355469 39.246094 C 7.113281 39.296875 6.875 39.355469 6.644531 39.417969 C 6.589844 39.433594 6.539062 39.445312 6.488281 39.460938 C 6.261719 39.523438 6.039062 39.59375 5.820312 39.671875 C 5.785156 39.683594 5.75 39.699219 5.71875 39.710938 C 5.523438 39.78125 5.332031 39.859375 5.148438 39.9375 C 5.105469 39.957031 5.058594 39.976562 5.015625 39.996094 C 4.8125 40.085938 4.613281 40.183594 4.421875 40.285156 C 4.375 40.308594 4.335938 40.332031 4.292969 40.355469 C 4.117188 40.453125 3.945312 40.554688 3.777344 40.660156 C 3.753906 40.675781 3.726562 40.691406 3.699219 40.707031 C 3.519531 40.824219 3.34375 40.945312 3.171875 41.074219 C 3.132812 41.101562 3.089844 41.136719 3.050781 41.167969 C 2.882812 41.296875 2.714844 41.433594 2.558594 41.570312 C 2.546875 41.582031 2.539062 41.589844 2.527344 41.601562 C 2.378906 41.734375 2.238281 41.871094 2.097656 42.015625 C 2.066406 42.050781 2.03125 42.085938 2 42.121094 C 1.859375 42.269531 1.726562 42.421875 1.597656 42.578125 C 1.574219 42.605469 1.554688 42.636719 1.53125 42.664062 C 1.421875 42.804688 1.316406 42.949219 1.214844 43.097656 C 1.195312 43.132812 1.167969 43.164062 1.148438 43.199219 C 1.136719 43.214844 1.125 43.230469 1.113281 43.25 Z M 54.921875 17.660156 C 54.914062 17.660156 54.910156 17.664062 54.902344 17.664062 C 54.898438 17.664062 54.894531 17.664062 54.894531 17.664062 L 19.382812 17.664062 L 19.382812 11.011719 C 19.382812 10.3125 19.265625 9.617188 19.035156 8.941406 C 18.183594 6.453125 15.851562 4.46875 12.796875 3.644531 C 11.046875 3.171875 9.128906 3.105469 7.359375 3.464844 C 3.015625 4.316406 -0.0195312 7.421875 -0.0195312 11.011719 L -0.0195312 47.015625 C -0.0195312 50.703125 3.003906 53.890625 7.335938 54.765625 C 7.382812 54.777344 7.4375 54.792969 7.460938 54.792969 C 7.464844 54.796875 7.46875 54.796875 7.472656 54.796875 C 7.476562 54.796875 7.484375 54.796875 7.488281 54.800781 C 7.492188 54.800781 7.492188 54.800781 7.496094 54.800781 C 8.195312 54.933594 8.933594 55.003906 9.683594 55.003906 C 10.425781 55.003906 11.148438 54.9375 11.835938 54.804688 L 12.648438 54.804688 C 12.648438 54.804688 12.652344 54.804688 12.65625 54.804688 L 48.773438 54.804688 C 48.777344 54.804688 48.78125 54.804688 48.789062 54.804688 C 48.792969 54.804688 48.796875 54.804688 48.800781 54.804688 L 54.894531 54.804688 C 54.894531 54.804688 54.902344 54.804688 54.902344 54.804688 C 54.910156 54.804688 54.917969 54.804688 54.921875 54.804688 C 55.238281 54.804688 55.488281 54.554688 55.488281 54.242188 L 55.488281 18.226562 C 55.488281 17.914062 55.238281 17.660156 54.921875 17.660156 Z M 14.785156 47.664062 C 14.507812 48.589844 13.652344 49.441406 12.421875 49.972656 C 11.984375 50.164062 11.523438 50.304688 11.050781 50.398438 C 10.148438 50.570312 9.195312 50.570312 8.320312 50.398438 C 8.066406 50.347656 7.84375 50.292969 7.628906 50.226562 C 5.746094 49.65625 4.480469 48.363281 4.480469 47.011719 C 4.480469 45.660156 5.746094 44.367188 7.632812 43.796875 C 8.289062 43.59375 8.976562 43.496094 9.683594 43.496094 C 10.640625 43.496094 11.585938 43.683594 12.417969 44.046875 C 13.9375 44.714844 14.882812 45.847656 14.882812 47.011719 C 14.882812 47.230469 14.847656 47.449219 14.785156 47.664062 Z M 12.875 43.011719 C 11.175781 42.277344 9.097656 42.167969 7.300781 42.714844 C 4.898438 43.445312 3.347656 45.132812 3.347656 47.011719 C 3.347656 48.867188 4.933594 50.589844 7.296875 51.300781 C 7.542969 51.378906 7.808594 51.445312 8.101562 51.503906 C 8.617188 51.605469 9.148438 51.652344 9.683594 51.652344 C 10.214844 51.652344 10.746094 51.605469 11.261719 51.503906 C 11.820312 51.398438 12.363281 51.230469 12.875 51.007812 C 14.808594 50.167969 16.015625 48.636719 16.015625 47.011719 C 16.015625 45.398438 14.8125 43.863281 12.875 43.011719 " fill-opacity="1" fill-rule="nonzero"/></g></svg>