<svg xmlns="http://www.w3.org/2000/svg" xmlns:xlink="http://www.w3.org/1999/xlink" width="75" zoomAndPan="magnify" viewBox="0 0 56.25 59.25" height="79" preserveAspectRatio="xMidYMid meet" version="1.0"><defs><clipPath id="49f40d8a0f"><path d="M 27 4.882812 L 55.511719 4.882812 L 55.511719 53.699219 L 27 53.699219 Z M 27 4.882812 " clip-rule="nonzero"/></clipPath><clipPath id="4cf599ebe8"><path d="M 0 4.882812 L 28 4.882812 L 28 53.699219 L 0 53.699219 Z M 0 4.882812 " clip-rule="nonzero"/></clipPath><clipPath id="4494cceab9"><path d="M 1 52 L 28 52 L 28 53.699219 L 1 53.699219 Z M 1 52 " clip-rule="nonzero"/></clipPath><clipPath id="586b91f55a"><path d="M 29 52 L 55 52 L 55 53.699219 L 29 53.699219 Z M 29 52 " clip-rule="nonzero"/></clipPath></defs><g clip-path="url(#49f40d8a0f)"><path fill="#c28a57" d="M 27.757812 53.695312 L 55.476562 53.695312 L 55.476562 4.855469 L 27.757812 4.855469 Z M 27.757812 53.695312 " fill-opacity="1" fill-rule="nonzero"/></g><g clip-path="url(#4cf599ebe8)"><path fill="#c28a57" d="M 0.0351562 53.695312 L 27.757812 53.695312 L 27.757812 4.855469 L 0.0351562 4.855469 Z M 0.0351562 53.695312 " fill-opacity="1" fill-rule="nonzero"/></g><path fill="#8c633e" d="M 2.847656 50.65625 L 24.945312 50.65625 L 24.945312 17.054688 L 2.847656 17.054688 Z M 2.847656 50.65625 " fill-opacity="1" fill-rule="nonzero"/><path fill="#45a0c7" d="M 24.46875 49.9375 L 3.320312 49.9375 L 3.320312 17.773438 L 24.46875 17.773438 L 24.46875 49.9375 " fill-opacity="1" fill-rule="nonzero"/><path fill="#65bed9" d="M 4.03125 48.855469 L 4.03125 18.859375 L 23.757812 18.859375 Z M 4.03125 48.855469 " fill-opacity="1" fill-rule="nonzero"/><path fill="#2c8fb9" d="M 23.746094 35.75 L 23.746094 48.855469 L 15.933594 48.855469 Z M 23.746094 35.75 " fill-opacity="1" fill-rule="nonzero"/><path fill="#8c633e" d="M 2.847656 14.535156 L 24.945312 14.535156 L 24.945312 7.335938 L 2.847656 7.335938 Z M 2.847656 14.535156 " fill-opacity="1" fill-rule="nonzero"/><path fill="#45a0c7" d="M 24.46875 14.382812 L 3.320312 14.382812 L 3.320312 7.492188 L 24.46875 7.492188 L 24.46875 14.382812 " fill-opacity="1" fill-rule="nonzero"/><path fill="#65bed9" d="M 4.03125 13.824219 L 4.03125 8.089844 L 24.019531 8.089844 Z M 4.03125 13.824219 " fill-opacity="1" fill-rule="nonzero"/><path fill="#2c8fb9" d="M 24.007812 11.320312 L 24.007812 13.824219 L 16.089844 13.824219 Z M 24.007812 11.320312 " fill-opacity="1" fill-rule="nonzero"/><g clip-path="url(#4494cceab9)"><path fill="#8c633e" d="M 1.929688 53.011719 L 27.113281 53.011719 L 27.113281 52.367188 L 1.929688 52.367188 Z M 1.929688 53.011719 " fill-opacity="1" fill-rule="nonzero"/></g><path fill="#8c633e" d="M 0.675781 52.691406 L 1.289062 52.691406 L 1.289062 5.566406 L 0.675781 5.566406 Z M 0.675781 52.691406 " fill-opacity="1" fill-rule="nonzero"/><path fill="#8c633e" d="M 30.570312 50.65625 L 52.664062 50.65625 L 52.664062 17.054688 L 30.570312 17.054688 Z M 30.570312 50.65625 " fill-opacity="1" fill-rule="nonzero"/><path fill="#45a0c7" d="M 52.191406 49.9375 L 31.039062 49.9375 L 31.039062 17.773438 L 52.191406 17.773438 L 52.191406 49.9375 " fill-opacity="1" fill-rule="nonzero"/><path fill="#65bed9" d="M 31.753906 48.855469 L 31.753906 18.859375 L 51.476562 18.859375 Z M 31.753906 48.855469 " fill-opacity="1" fill-rule="nonzero"/><path fill="#2c8fb9" d="M 51.46875 35.75 L 51.46875 48.855469 L 43.652344 48.855469 Z M 51.46875 35.75 " fill-opacity="1" fill-rule="nonzero"/><path fill="#8c633e" d="M 30.570312 14.535156 L 52.664062 14.535156 L 52.664062 7.335938 L 30.570312 7.335938 Z M 30.570312 14.535156 " fill-opacity="1" fill-rule="nonzero"/><path fill="#45a0c7" d="M 52.191406 14.382812 L 31.039062 14.382812 L 31.039062 7.492188 L 52.191406 7.492188 L 52.191406 14.382812 " fill-opacity="1" fill-rule="nonzero"/><path fill="#65bed9" d="M 31.753906 13.824219 L 31.753906 8.089844 L 51.742188 8.089844 Z M 31.753906 13.824219 " fill-opacity="1" fill-rule="nonzero"/><path fill="#2c8fb9" d="M 51.726562 11.320312 L 51.726562 13.824219 L 43.8125 13.824219 Z M 51.726562 11.320312 " fill-opacity="1" fill-rule="nonzero"/><g clip-path="url(#586b91f55a)"><path fill="#8c633e" d="M 29.652344 53.011719 L 54.832031 53.011719 L 54.832031 52.367188 L 29.652344 52.367188 Z M 29.652344 53.011719 " fill-opacity="1" fill-rule="nonzero"/></g></svg>